<?xml version="1.0" encoding="UTF-8"?>
<svg id="Ebene_2" data-name="Ebene 2" xmlns="http://www.w3.org/2000/svg" viewBox="0 0 299.77 47.48">
  <defs>
    <style>
      .cls-1 {
        fill: #2d7f83;
      }

      .cls-2 {
        fill: #7da4a7;
      }

      .cls-3 {
        fill: #8ebae5;
      }

      .cls-4 {
        fill: #d0d95c;
      }

      .cls-5 {
        fill: #006165;
      }

      .cls-6 {
        fill: #00549f;
      }
    </style>
  </defs>
  <g id="Logo">
    <g>
      <path class="cls-3" d="M239.13,45.46h4.34v-9.11h2.32c1.75,0,2.5,1.03,2.57,2.72l.12,4.13c.03.84.12,1.66.54,2.26h4.71v-.18c-.81-.42-.93-1.6-.96-3.86-.06-4.56-.51-6.19-3.47-6.58v-.06c2.44-.51,3.59-2.44,3.59-5.31,0-3.68-2.17-5.55-5.73-5.55h-8.03v21.55ZM243.47,27.11h2.05c1.96,0,3.02,1,3.02,2.99,0,2.32-1.18,3.23-3.26,3.23h-1.81v-6.22Z"/>
      <path class="cls-3" d="M175.06,23.91v15.03c0,5.76,3.35,6.94,6.88,6.94s6.88-1.45,6.88-6.94v-15.03h-4.34v15.03c0,2.14-.51,3.74-2.53,3.74s-2.53-1.6-2.53-3.74v-15.03h-4.34Z"/>
    </g>
    <polygon class="cls-3" points="189.89 23.91 189.89 45.46 193.87 45.46 193.87 30.37 193.93 30.37 199.24 45.46 204.19 45.46 204.19 23.91 200.21 23.91 200.21 38.67 200.15 38.67 194.9 23.91 189.89 23.91"/>
    <rect class="cls-3" x="205.31" y="23.91" width="4.35" height="21.55"/>
    <polygon class="cls-3" points="209.95 23.91 214.9 45.46 220.48 45.46 225.43 23.91 220.93 23.91 217.74 39.85 217.65 39.85 214.6 23.91 209.95 23.91"/>
    <polygon class="cls-3" points="225.82 23.91 225.82 45.46 238.16 45.46 238.16 41.9 230.16 41.9 230.16 36.1 237.41 36.1 237.41 32.54 230.16 32.54 230.16 27.47 237.86 27.47 237.86 23.91 225.82 23.91"/>
    <path class="cls-3" d="M253.25,38.73v.88c0,3.98,1.93,6.28,6.85,6.28s7.48-2.05,7.48-6.61c0-2.62-.84-4.28-4.1-5.7l-3.35-1.45c-1.84-.79-2.23-1.6-2.23-2.93s.51-2.5,2.47-2.5c1.66,0,2.35,1.18,2.35,3.2h4.16v-.6c0-4.13-2.81-5.79-6.67-5.79-4.1,0-6.67,2.14-6.67,6.34,0,3.59,1.78,5.19,5.64,6.52,2.87,1,3.86,1.72,3.86,3.68,0,1.81-1.27,2.66-2.59,2.66-2.29,0-2.87-1.3-2.87-3.32v-.63h-4.34Z"/>
    <rect class="cls-3" x="268.15" y="23.91" width="4.35" height="21.55"/>
    <polygon class="cls-3" points="295.06 23.91 292.04 32.24 291.98 32.24 289.15 23.91 273.06 23.91 273.06 27.47 277.77 27.47 277.77 45.46 282.12 45.46 282.12 27.47 285.78 27.47 289.84 36.98 289.84 45.46 294.19 45.46 294.19 36.98 299.77 23.91 295.06 23.91"/>
    <g>
      <path class="cls-6" d="M136.89,21.95h-7.2V.31h11.81c3.2,0,5.96,2.07,6.86,4.82.83,2.55.12,5.31-1.76,7.28.25.68.49,1.21.73,1.82.52,1.2,1,2.41,1.52,3.6l1.71,4.12h-7.3s-.06-.17-.12-.25c-.29-.64-.55-1.32-.84-1.96l-1.76-4.17c-.7-1.68-1.39-3.28-2.09-4.96.87-.02,1.52.14,2.36-.25.59-.29,1.48-1.01,1.51-2.39-.02-.69-.21-1.2-.67-1.74-.45-.5-1.11-.87-1.97-.89,0,0-2.8,0-2.8,0v16.6Z"/>
      <path class="cls-6" d="M212.1.31v21.64h-7.2v-8.82h-5.04v8.82c-1.31,0-2.71-.01-4.02,0h-3.18V5.32h-5.04v16.63h-7.2V5.32h-5.08v16.63h-7.42c-1.29-3.12-2.66-6.27-3.92-9.38-.14-.65-.29-1.31-.48-1.94v11.32h-7.43c-1.47-3.43-2.89-6.78-4.36-10.26-.51-1.2-.93-2.18-1.45-3.44l-.07-.16-1.14-2.69-1.64-3.83c-.14-.44-.38-.83-.52-1.26h7.41c1.52,3.7,3.06,7.36,4.66,11l.04.09c-.06-.42-.19-.96-.26-1.36V3.58c.01-1.03,0-2.21,0-3.27h7.43c.09.24.15.36.22.55.87,2.05,1.7,4.08,2.57,6.11l1.94,4.43c-.04-.47-.15-.91-.2-1.36V.31h29.13v7.81h5.04V.31h7.2Z"/>
    </g>
    <path class="cls-3" d="M232.98,13.8l2.09-9.73h.06l2.09,9.73h-4.24ZM218.56,13.8l2.09-9.73h.06l2.09,9.73h-4.24ZM237.8.31h-5.4l-4.52,17.06L223.37.31h-5.4l-5.73,21.64h4.55l1-4.58h5.76l1,4.58h6.67l1-4.58h5.76l1,4.58h4.55L237.8.31Z"/>
    <path class="cls-3" d="M256.53,7.69c0-3.14-.45-7.69-6.67-7.69s-7.33,4.65-7.33,11.19.82,11.19,7.33,11.19c5.7,0,6.85-4.01,6.85-8.66h-4.34c0,4.65-1.15,5.46-2.72,5.46-1.87,0-2.78-1.18-2.78-7.7,0-6.09.51-8.3,2.72-8.3,1.96,0,2.59,1.36,2.59,4.5h4.34Z"/>
    <polygon class="cls-3" points="257.57 21.95 261.93 21.95 261.93 12.35 267.03 12.35 267.03 21.95 271.39 21.95 271.39 .31 267.03 .31 267.03 8.59 261.93 8.59 261.93 .31 257.57 .31 257.57 21.95"/>
    <polygon class="cls-3" points="272.34 .31 272.34 21.95 284.74 21.95 284.74 18.38 276.7 18.38 276.7 12.56 283.98 12.56 283.98 8.98 276.7 8.98 276.7 3.89 284.43 3.89 284.43 .31 272.34 .31"/>
    <polygon class="cls-3" points="285.39 .31 285.39 21.95 289.39 21.95 289.39 6.8 289.45 6.8 294.78 21.95 299.75 21.95 299.75 .31 295.75 .31 295.75 15.13 295.69 15.13 290.42 .31 285.39 .31"/>
    <rect class="cls-6" x="115.02" y=".28" width="1" height="45.36"/>
    <g>
      <path class="cls-6" d="M93.83,40.26v.6h-.02c-.13-.28-.3-.47-.51-.58-.21-.11-.41-.16-.6-.16-.37,0-.67.08-.89.25-.22.17-.39.38-.51.65-.12.26-.19.56-.23.89-.04.33-.06.65-.06.96,0,.98.14,1.68.41,2.1.28.42.69.62,1.23.62.22,0,.43-.06.64-.18.2-.12.38-.28.52-.48h.02v.71c0,.28-.06.51-.17.69-.11.18-.31.28-.59.28-.09,0-.17-.01-.25-.04-.08-.03-.15-.06-.21-.11-.14-.1-.21-.24-.21-.41h-1.32c0,.46.16.82.48,1.07.32.25.77.38,1.35.38.81,0,1.38-.17,1.73-.51.34-.34.52-.88.52-1.6v-5.11h-1.32ZM92.42,42.2c.02-.25.05-.45.11-.6.05-.15.13-.26.22-.33.09-.07.22-.1.37-.1.27,0,.46.14.56.41.1.27.15.74.15,1.39,0,.23-.01.43-.03.62-.02.19-.06.35-.12.49-.06.13-.13.24-.23.31-.1.08-.22.11-.37.11s-.26-.04-.35-.11-.16-.18-.21-.31-.08-.28-.1-.44c-.02-.17-.02-.34-.02-.53,0-.36,0-.66.02-.91M86.08,45.64h1.38v-3.57c0-.59.24-.89.73-.89.21,0,.36.05.45.16.09.11.14.31.14.59v3.71h1.38v-3.99c0-.54-.12-.93-.36-1.17-.24-.24-.57-.36-1.01-.36-.3,0-.57.06-.8.19-.23.12-.42.32-.57.58h-.02v-.63h-1.32v5.38ZM83.7,45.64h1.38v-5.38h-1.38v5.38ZM83.7,39.6h1.38v-1.18h-1.38v1.18ZM80.24,45.64h1.38v-3.23c0-.18.03-.33.09-.45s.14-.22.24-.3.21-.13.33-.16.24-.05.36-.05c.07,0,.14,0,.21,0s.14,0,.22.01v-1.32s-.08-.01-.12-.01c-.04,0-.09,0-.12,0-.29,0-.53.08-.73.24s-.37.36-.51.62h-.02v-.72h-1.32v5.38ZM76.59,42.19c.01-.23.05-.43.1-.6s.12-.3.22-.39c.1-.09.23-.14.4-.14.28,0,.47.15.58.44.11.29.16.78.16,1.45s-.05,1.16-.16,1.45c-.11.29-.3.44-.58.44-.17,0-.31-.05-.4-.14-.1-.09-.17-.22-.22-.39s-.08-.37-.1-.6c-.01-.23-.02-.49-.02-.76s0-.53.02-.76M75.29,44.19c.07.35.18.65.34.89s.38.42.65.53c.27.12.62.17,1.03.16.39,0,.73-.06.99-.18s.49-.3.65-.54c.17-.24.29-.53.36-.89.07-.35.11-.76.11-1.22s-.03-.88-.1-1.23c-.07-.36-.18-.66-.34-.9s-.38-.42-.65-.53c-.27-.12-.62-.17-1.03-.17-.39,0-.73.06-.99.19s-.49.3-.65.54c-.17.24-.29.53-.36.89-.07.35-.11.76-.11,1.22s.03.89.1,1.24M72.61,40.26h-.7v.94h.7v3.08c0,.27.02.5.05.68.03.18.09.33.18.43s.22.19.39.24c.17.05.39.07.66.07.16,0,.31,0,.45-.02.14-.01.29-.03.44-.04v-.96s-.1.01-.15.01c-.05,0-.11,0-.16,0-.2,0-.33-.05-.4-.14-.06-.09-.09-.24-.09-.45v-2.91h.8v-.94h-.8v-1.54h-1.38v1.54ZM69.88,45.64h1.38v-5.38h-1.38v5.38ZM69.88,39.6h1.38v-1.18h-1.38v1.18ZM64.81,45.64h1.38v-3.57c0-.59.24-.89.73-.89.21,0,.36.05.45.16.09.11.14.31.14.59v3.71h1.38v-3.99c0-.54-.12-.93-.35-1.17-.24-.24-.58-.36-1.02-.36-.3,0-.57.06-.8.19-.23.12-.42.32-.57.58h-.02v-.63h-1.32v5.38ZM61.16,42.19c.01-.23.05-.43.1-.6s.12-.3.22-.39c.1-.09.23-.14.41-.14.28,0,.47.15.58.44.11.29.16.78.16,1.45s-.05,1.16-.16,1.45c-.11.29-.3.44-.58.44-.17,0-.31-.05-.41-.14-.1-.09-.17-.22-.22-.39s-.08-.37-.1-.6c-.01-.23-.02-.49-.02-.76s0-.53.02-.76M59.86,44.19c.07.35.18.65.34.89s.38.42.65.53c.27.12.62.17,1.03.16.39,0,.72-.06.99-.18s.49-.3.65-.54c.17-.24.29-.53.36-.89.07-.35.11-.76.11-1.22s-.03-.88-.1-1.23c-.07-.36-.18-.66-.34-.9s-.38-.42-.65-.53c-.27-.12-.62-.17-1.03-.17-.39,0-.73.06-.99.19s-.49.3-.66.54c-.17.24-.29.53-.36.89-.07.35-.11.76-.11,1.22s.03.89.1,1.24M52.54,45.64h1.32v-5.7h.02l1.27,5.7h1.12l1.27-5.7h.02v5.7h1.32v-7.14h-2.13l-1.03,5.04h-.02l-1.02-5.04h-2.14v7.14Z"/>
      <path class="cls-6" d="M98.65,30.28c.09-.3.28-.44.59-.44s.51.15.6.44c.09.3.13.74.13,1.33s-.05,1.03-.13,1.33c-.09.3-.29.44-.6.44s-.49-.15-.59-.44c-.09-.3-.14-.74-.14-1.33s.05-1.03.14-1.33M100.02,34.3h1.32v-7.14h-1.38v2.26h-.02c-.15-.21-.31-.37-.49-.48-.18-.11-.41-.16-.66-.16-.57,0-.98.22-1.25.67-.27.44-.4,1.16-.4,2.16s.13,1.72.4,2.17c.27.44.68.66,1.25.66.28,0,.51-.06.7-.16s.36-.29.51-.55h.02v.57ZM92.2,34.3h1.38v-3.57c0-.59.24-.89.73-.89.21,0,.36.06.45.17.09.11.14.31.14.58v3.71h1.38v-3.99c0-.54-.12-.93-.35-1.17-.24-.24-.58-.36-1.02-.36-.3,0-.57.06-.8.18-.23.12-.42.32-.57.59h-.02v-.63h-1.32v5.38ZM89.88,32.67c0,.15-.03.28-.08.39-.05.1-.12.19-.2.26-.08.07-.17.11-.27.14s-.2.05-.29.05c-.19,0-.32-.07-.4-.22-.08-.15-.12-.32-.12-.53,0-.24.06-.43.18-.57s.32-.24.6-.3c.09-.02.18-.05.29-.1.11-.04.21-.1.3-.17v1.06ZM88.6,30.57v-.15c0-.21.05-.38.16-.51.11-.13.27-.19.48-.19.23,0,.4.06.49.17.1.12.15.28.15.49,0,.18-.04.32-.12.41-.08.09-.22.17-.43.22l-.78.21c-.24.07-.44.14-.61.23-.17.09-.31.19-.42.33s-.19.29-.24.47c-.05.18-.08.4-.08.66,0,.18.02.36.07.55.05.18.12.35.22.49.1.15.23.27.4.36.17.09.37.14.61.14.33,0,.6-.05.81-.14.21-.09.4-.28.56-.56h.02c.02.09.04.19.06.28.02.1.06.19.1.27h1.32c-.07-.16-.11-.31-.14-.45-.02-.14-.03-.34-.03-.59v-2.83c0-.24-.03-.46-.07-.66-.05-.2-.15-.38-.28-.52-.14-.15-.34-.26-.6-.34-.26-.08-.59-.12-.99-.12-.26,0-.51.03-.74.09-.23.06-.43.15-.6.28s-.31.3-.41.51c-.1.21-.15.47-.15.78v.13h1.24ZM82.68,28.92v.6h-.02c-.13-.28-.3-.47-.51-.58-.21-.11-.41-.16-.6-.16-.37,0-.67.08-.89.25-.22.17-.39.38-.51.65-.12.26-.19.56-.23.89-.04.33-.06.65-.06.96,0,.98.14,1.68.41,2.1.28.42.69.62,1.23.62.22,0,.43-.06.64-.18.2-.12.38-.28.52-.48h.02v.71c0,.28-.06.51-.17.69-.11.18-.31.27-.59.27-.09,0-.17-.01-.25-.04-.08-.03-.15-.06-.21-.11-.14-.1-.21-.24-.21-.41h-1.32c0,.46.16.82.48,1.07.32.25.77.38,1.35.38.81,0,1.38-.17,1.73-.52s.52-.88.52-1.59v-5.11h-1.32ZM81.26,30.86c.02-.25.05-.45.11-.6.05-.15.13-.26.22-.33.09-.07.22-.1.37-.1.27,0,.46.14.56.41.1.27.15.74.15,1.39,0,.23-.01.43-.03.62-.02.19-.06.35-.12.48-.06.13-.13.24-.23.32-.1.08-.22.11-.37.11s-.26-.04-.35-.11c-.09-.08-.16-.18-.21-.31s-.08-.28-.1-.44c-.02-.17-.02-.34-.02-.53,0-.36,0-.66.02-.91M74.93,34.3h1.38v-3.57c0-.59.24-.89.73-.89.21,0,.36.06.45.17.09.11.14.31.14.58v3.71h1.38v-3.99c0-.54-.12-.93-.36-1.17-.24-.24-.57-.36-1.01-.36-.3,0-.57.06-.8.18-.23.12-.42.32-.57.59h-.02v-.63h-1.32v5.38ZM72.54,34.3h1.38v-5.38h-1.38v5.38ZM72.54,28.26h1.38v-1.18h-1.38v1.18ZM70.2,28.92v.6h-.02c-.13-.28-.3-.47-.51-.58-.21-.11-.41-.16-.6-.16-.37,0-.67.08-.89.25-.22.17-.39.38-.51.65-.12.26-.19.56-.23.89-.04.33-.05.65-.05.96,0,.98.14,1.68.41,2.1.28.42.69.62,1.23.62.22,0,.43-.06.64-.18.2-.12.38-.28.52-.48h.02v.71c0,.28-.06.51-.17.69-.11.18-.31.27-.59.27-.09,0-.17-.01-.24-.04-.08-.03-.15-.06-.22-.11-.14-.1-.21-.24-.21-.41h-1.32c0,.46.16.82.48,1.07.32.25.77.38,1.35.38.81,0,1.38-.17,1.73-.52s.51-.88.51-1.59v-5.11h-1.32ZM68.78,30.86c.02-.25.05-.45.11-.6.05-.15.13-.26.22-.33.09-.07.22-.1.37-.1.27,0,.46.14.57.41.1.27.15.74.15,1.39,0,.23-.01.43-.03.62-.02.19-.06.35-.12.48-.06.13-.13.24-.23.32-.1.08-.22.11-.36.11s-.27-.04-.35-.11c-.09-.08-.16-.18-.21-.31s-.08-.28-.1-.44c-.02-.17-.02-.34-.02-.53,0-.36,0-.66.02-.91M65.2,32.67c0,.15-.03.28-.08.39-.05.1-.12.19-.2.26-.08.07-.18.11-.28.14s-.2.05-.29.05c-.19,0-.32-.07-.4-.22-.08-.15-.12-.32-.12-.53,0-.24.06-.43.18-.57s.32-.24.6-.3c.09-.02.18-.05.29-.1.11-.04.21-.1.3-.17v1.06ZM63.92,30.57v-.15c0-.21.05-.38.16-.51.11-.13.27-.19.48-.19.23,0,.4.06.49.17.1.12.15.28.15.49,0,.18-.04.32-.12.41-.08.09-.22.17-.43.22l-.78.21c-.24.07-.44.14-.61.23-.17.09-.31.19-.42.33s-.19.29-.24.47c-.05.18-.08.4-.08.66,0,.18.02.36.07.55.05.18.12.35.22.49.1.15.23.27.4.36.17.09.37.14.61.14.33,0,.61-.05.82-.14.21-.09.39-.28.55-.56h.02c.02.09.04.19.06.28.02.1.06.19.11.27h1.32c-.07-.16-.11-.31-.14-.45-.02-.14-.03-.34-.03-.59v-2.83c0-.24-.02-.46-.07-.66-.05-.2-.14-.38-.28-.52-.14-.15-.34-.26-.6-.34-.26-.08-.59-.12-.99-.12-.26,0-.51.03-.73.09-.23.06-.43.15-.6.28s-.31.3-.4.51c-.1.21-.15.47-.15.78v.13h1.24ZM55.08,34.3h1.38v-3.54c0-.32.07-.55.2-.7.13-.15.3-.22.52-.22.19,0,.33.06.41.18.08.12.12.29.12.52v3.76h1.38v-3.54c0-.32.06-.55.19-.7.13-.15.31-.22.53-.22.19,0,.33.06.41.18.08.12.12.29.12.52v3.76h1.38v-3.91c0-.52-.11-.92-.32-1.19-.22-.28-.55-.42-1.01-.42-.33,0-.61.07-.85.22-.24.14-.41.36-.52.65h-.02c-.07-.28-.22-.49-.44-.64-.22-.15-.48-.22-.8-.22-.3,0-.56.05-.78.16-.22.11-.41.28-.59.53h-.02v-.55h-1.32v5.38ZM54.02,27.16h-1.44v7.14h1.44v-7.14Z"/>
      <path class="cls-6" d="M98.81,22.96h1.38v-7.14h-1.38v7.14ZM96.45,21.33c0,.15-.03.28-.08.39-.05.1-.12.19-.2.26-.08.07-.18.11-.27.14s-.2.05-.29.05c-.19,0-.32-.07-.4-.22s-.12-.32-.12-.53c0-.24.06-.43.18-.57.12-.14.32-.24.6-.3.09-.02.18-.05.29-.1.11-.04.21-.1.3-.17v1.06ZM95.17,19.23v-.15c0-.21.05-.38.16-.51.11-.13.27-.19.48-.19.23,0,.4.06.49.18.1.12.14.28.14.48,0,.18-.04.32-.12.41-.08.09-.22.17-.43.22l-.78.21c-.24.07-.44.14-.61.23-.17.09-.31.2-.42.33s-.19.29-.24.47c-.05.18-.08.4-.08.66,0,.18.02.36.07.54.05.18.12.35.22.5.1.15.23.27.4.36.17.09.37.14.61.14.33,0,.6-.05.81-.14s.4-.28.56-.56h.02c.02.09.04.19.07.29.02.1.06.19.1.27h1.32c-.07-.16-.11-.31-.14-.45-.02-.14-.03-.34-.03-.59v-2.83c0-.24-.03-.46-.08-.66-.05-.2-.14-.38-.28-.53s-.34-.26-.6-.34c-.26-.08-.59-.12-1-.12-.26,0-.5.03-.73.09-.23.06-.43.15-.6.28-.17.13-.3.3-.4.51s-.15.47-.15.78v.13h1.24ZM93.14,19.52c0-.64-.16-1.15-.48-1.52-.32-.37-.81-.56-1.44-.56-.32,0-.61.04-.88.13-.27.09-.5.24-.69.45-.19.22-.34.51-.45.87-.11.36-.16.82-.16,1.38s.04.99.13,1.35c.09.36.22.65.39.87s.38.37.64.47c.26.09.56.14.91.14.73,0,1.26-.19,1.57-.57.32-.38.47-.92.47-1.63h-1.32c0,.44-.05.76-.16.96-.11.2-.28.3-.51.3-.15,0-.28-.03-.38-.1-.1-.07-.17-.18-.22-.34-.05-.15-.09-.35-.11-.59s-.03-.52-.03-.86c0-.31.01-.58.03-.81s.06-.43.11-.57c.05-.15.13-.26.23-.34.1-.08.24-.12.41-.12.13,0,.23.03.31.1.08.06.15.15.19.25.04.1.07.22.09.35.02.13.02.26.02.39h1.32ZM86.82,22.96h1.38v-5.38h-1.38v5.38ZM86.82,16.92h1.38v-1.18h-1.38v1.18ZM82.05,21.2v.19c0,.26.03.49.09.7s.16.39.32.54.35.26.6.34c.25.08.58.12.97.12.29,0,.55-.04.8-.11.25-.07.46-.18.63-.31.18-.14.32-.32.41-.53s.15-.46.15-.74c0-.41-.09-.73-.27-.97s-.49-.43-.92-.57l-.83-.28c-.23-.07-.39-.16-.47-.27-.08-.11-.12-.23-.12-.36,0-.19.06-.34.19-.44s.28-.14.45-.14c.23,0,.39.06.48.19s.13.34.13.61h1.24v-.22c0-.49-.15-.86-.45-1.13s-.76-.4-1.39-.4c-.35,0-.65.04-.9.13s-.46.2-.62.35-.28.32-.35.52c-.07.2-.11.4-.11.62,0,.38.1.69.29.93.19.24.48.43.86.57l.97.35c.13.05.25.12.35.22s.15.22.15.4c0,.21-.06.37-.19.48-.13.11-.3.16-.51.16-.23,0-.41-.07-.53-.22-.12-.14-.18-.33-.18-.56v-.18h-1.24ZM77.78,24.72h.56c.32,0,.58-.02.79-.07s.39-.15.54-.3.3-.42.45-.8.24-.7.28-.95l1.3-5.02h-1.38l-.7,3.72h-.02l-.8-3.72h-1.44l1.51,5.38c-.02.24-.09.43-.2.56s-.29.2-.55.2c-.12,0-.24-.01-.36-.03v1.03ZM72.79,22.96h1.38v-3.57c0-.59.24-.89.73-.89.21,0,.36.06.45.16.09.11.14.31.14.59v3.71h1.38v-3.99c0-.54-.12-.93-.35-1.17-.24-.24-.57-.36-1.02-.36-.61,0-1.04.23-1.31.69h-.02v-2.31h-1.38v7.14ZM69.25,18.95c.09-.3.29-.44.59-.44s.5.15.59.44.14.74.14,1.33-.05,1.03-.14,1.32-.28.44-.59.44-.5-.15-.59-.44-.14-.74-.14-1.32.05-1.03.14-1.33M67.73,24.72h1.38v-2.26h.02c.15.21.31.37.5.48.18.11.4.16.66.16.57,0,.98-.22,1.25-.66.27-.44.4-1.16.4-2.16s-.13-1.72-.4-2.17c-.27-.44-.68-.66-1.25-.66-.28,0-.52.06-.7.16s-.36.29-.52.55h-.02v-.57h-1.32v7.14ZM64.09,19.51c.01-.23.05-.43.1-.6s.12-.3.22-.39.23-.14.4-.14c.28,0,.47.15.58.44s.16.78.16,1.45-.05,1.16-.16,1.45-.3.44-.58.44c-.17,0-.31-.05-.4-.14s-.17-.22-.22-.39-.08-.37-.1-.6-.02-.49-.02-.76,0-.53.02-.76M62.79,21.51c.07.35.18.65.34.89s.38.42.65.54.62.17,1.03.16c.39,0,.72-.06.99-.19s.49-.3.65-.54.29-.53.36-.89.11-.76.11-1.22-.03-.88-.1-1.24-.18-.65-.34-.89-.38-.42-.65-.54-.62-.17-1.03-.16c-.39,0-.73.06-.99.19s-.49.3-.66.54-.29.53-.36.89-.11.76-.11,1.22.03.89.1,1.24M59.32,19.66v-.21c0-.13.01-.25.03-.38s.06-.24.11-.34.12-.19.22-.25.2-.1.35-.1.26.03.35.09.16.14.21.25.08.24.1.4.03.34.04.55h-1.41ZM62.05,20.48v-.31c0-.41-.03-.79-.08-1.12s-.15-.62-.3-.86-.35-.42-.6-.55-.59-.2-.98-.2c-.47,0-.84.08-1.12.23s-.5.36-.65.62-.25.56-.3.89-.07.68-.07,1.04c0,.33.02.67.05,1.01s.11.65.24.93.34.5.62.68.67.26,1.17.26c.66,0,1.14-.17,1.45-.51s.47-.82.5-1.45h-1.24c-.04.34-.11.59-.22.76s-.28.25-.51.25c-.13,0-.23-.03-.32-.1s-.16-.16-.21-.28-.09-.25-.11-.4-.03-.31-.03-.47v-.43h2.73ZM57.06,17.94c0-.73-.17-1.28-.52-1.67s-.91-.59-1.7-.59c-.46,0-.84.08-1.15.23s-.55.38-.74.69-.32.68-.39,1.13-.11.98-.11,1.58.03,1.16.08,1.63.16.87.31,1.19.37.56.65.72.63.25,1.07.25c.34,0,.63-.06.88-.19s.45-.33.62-.61h.02v.66h1.06v-3.85h-2.33v1.06h.95v.73c0,.19-.03.36-.09.51s-.14.26-.22.36-.19.16-.29.21-.2.07-.29.07c-.21,0-.38-.06-.51-.19s-.23-.32-.3-.56-.12-.54-.15-.88-.04-.73-.04-1.16c0-.89.08-1.53.23-1.92s.4-.58.75-.58c.15,0,.27.04.38.11s.19.17.25.29.12.25.15.39.05.28.05.4h1.38Z"/>
      <path class="cls-5" d="M1.13,45.64h20.69l-7.64-13.7L1.13,45.64ZM28.58,35.29l-5.14,10.35h10l-4.86-10.35ZM15.29,31.81l7.34,13.15,5.21-10.49-12.55-2.66ZM13.91,30.71l7.73-8.12L0,20.1v25.22l13.91-14.6s0,0,0,0"/>
    </g>
    <path class="cls-1" d="M29.44,34.69l4.95,10.53,10.18-9.32-15.13-1.2ZM35.46,45.64h9.89v-9.06l-9.89,9.06ZM15.29,30.76l12.36,2.62-5.13-10.2-7.23,7.59Z"/>
    <path class="cls-2" d="M35.54,24.19l9.82,10.09v-8.96l-9.82-1.13ZM23.49,22.81l5.12,10.18,4.83-9.03-9.95-1.15ZM29.42,33.65l15.04,1.2-10.12-10.4-4.92,9.21Z"/>
    <g>
      <path class="cls-4" d="M2.4,2.69c.64-.64.99-1.5.99-2.41H0v3.41c.91,0,1.76-.36,2.4-1M5.82,6.14c1.56-1.56,2.41-3.65,2.41-5.86h-3.55c0,1.26-.49,2.44-1.37,3.34C2.42,4.5,1.25,4.99,0,4.99v3.58c2.2,0,4.27-.86,5.82-2.43M9.25,9.59c2.47-2.49,3.84-5.8,3.84-9.31h-3.56c0,2.56-.99,4.97-2.79,6.78C4.93,8.87,2.54,9.87,0,9.87v3.58c3.49,0,6.78-1.37,9.25-3.86M41.68,10.61h-1.72v-5.23h-.02l-2.07,5.23h-1.48l-2.07-5.23h-.02v5.23h-1.72v-6.53h2.61l1.94,4.7,1.94-4.7h2.61v6.53ZM31.34,10.61h-1.78v-6.53h1.78v6.53ZM28.39,10.61h-.9l-.23-.76c-.31.34-.7.58-1.18.72-.48.15-1,.22-1.57.22s-1.14-.07-1.61-.2c-.48-.13-.88-.34-1.21-.62-.33-.28-.59-.64-.77-1.07-.18-.44-.27-.96-.27-1.56,0-.5.09-.97.26-1.39.17-.43.42-.79.75-1.1.33-.3.73-.54,1.21-.71.48-.17,1.03-.26,1.65-.26.45,0,.89.04,1.32.11.43.07.82.2,1.16.38.35.19.64.42.88.72.24.3.4.67.48,1.11h-1.98c-.06-.21-.16-.38-.28-.52-.12-.14-.26-.24-.41-.33-.15-.08-.31-.14-.48-.17-.17-.04-.33-.05-.5-.05-.41,0-.75.07-1.02.2-.28.13-.5.31-.67.52-.17.21-.3.45-.37.71-.07.26-.11.52-.11.77s.04.51.11.77c.07.26.2.49.37.71.17.21.4.39.67.52.28.14.62.2,1.02.2.24,0,.47-.02.67-.07.22-.05.4-.13.57-.24.17-.11.31-.26.43-.45.12-.19.2-.41.26-.68h-1.59v-1.14h3.33v3.64ZM45.35,24.02V.28H14.37c0,3.86-1.5,7.5-4.22,10.23C7.44,13.24,3.84,14.75,0,14.75v4.06l45.35,5.22Z"/>
      <path class="cls-5" d="M3.31,3.62c.89-.89,1.37-2.08,1.37-3.34h-1.29c0,.91-.36,1.77-.99,2.41-.64.64-1.49,1-2.4,1v1.3c1.25,0,2.42-.49,3.31-1.38M6.73,7.06c1.8-1.81,2.79-4.22,2.79-6.78h-1.29c0,2.21-.85,4.3-2.41,5.86-1.56,1.57-3.62,2.43-5.82,2.43v1.3c2.54,0,4.93-1,6.73-2.8M10.16,10.51c2.72-2.73,4.22-6.37,4.22-10.23h-1.29c0,3.51-1.36,6.82-3.84,9.31-2.47,2.49-5.75,3.86-9.25,3.86v1.3c3.84,0,7.44-1.5,10.16-4.23M27.49,10.61h.9v-3.64h-3.33v1.14h1.59c-.06.27-.14.5-.26.68-.12.18-.26.33-.43.45-.17.11-.36.2-.57.24-.21.05-.43.07-.67.07-.41,0-.75-.07-1.02-.2-.28-.13-.5-.31-.67-.52-.17-.22-.3-.45-.37-.71-.07-.26-.11-.52-.11-.77s.04-.52.11-.77c.07-.26.2-.5.37-.71.17-.21.39-.39.67-.52.28-.14.62-.2,1.02-.2.16,0,.33.02.5.05.17.03.32.09.48.17.15.09.28.2.41.33.12.14.22.32.28.52h1.98c-.08-.44-.24-.82-.48-1.11-.24-.3-.53-.54-.88-.72-.35-.17-.73-.3-1.16-.38-.43-.07-.86-.11-1.32-.11-.62,0-1.16.09-1.64.26-.48.17-.88.41-1.21.71-.33.3-.58.67-.75,1.1-.17.42-.26.89-.26,1.39,0,.6.09,1.12.27,1.56.18.43.44.79.77,1.07.34.28.73.48,1.21.62.48.13,1.02.2,1.61.2s1.09-.07,1.57-.22c.47-.14.86-.39,1.18-.72l.23.76ZM29.56,10.61h1.78v-6.53h-1.78v6.53ZM41.68,10.61v-6.53h-2.61l-1.94,4.7-1.94-4.7h-2.61v6.53h1.72v-5.23h.02l2.07,5.23h1.48l2.07-5.23h.02v5.23h1.72Z"/>
    </g>
  </g>
</svg>